<?xml version="1.0" standalone="no"?>
<!DOCTYPE svg PUBLIC "-//W3C//DTD SVG 20010904//EN"
 "http://www.w3.org/TR/2001/REC-SVG-20010904/DTD/svg10.dtd">
<svg version="1.0" xmlns="http://www.w3.org/2000/svg"
 width="602.000000pt" height="602.000000pt" viewBox="0 0 602.000000 602.000000"
 preserveAspectRatio="xMidYMid meet">
<metadata>
Created by potrace 1.14, written by Peter Selinger 2001-2017
</metadata>
<g transform="translate(0.000000,602.000000) scale(0.100000,-0.100000)"
fill="#000000" stroke="none">
<path d="M2745 6009 c-384 -34 -795 -155 -1139 -337 l-108 -57 -54 -155 c-30
-85 -50 -156 -45 -158 6 -2 -6 -48 -25 -103 -19 -55 -32 -104 -29 -108 2 -5
14 -11 25 -14 15 -4 22 1 26 19 4 15 13 24 25 24 10 0 19 5 19 11 0 6 7 8 16
5 11 -4 20 5 31 34 10 25 21 39 29 36 7 -3 15 2 18 10 3 8 11 13 18 12 7 -2
19 11 27 29 12 27 18 31 41 26 15 -3 30 0 34 5 4 7 25 3 59 -9 31 -11 53 -15
55 -9 2 5 12 10 23 10 10 0 19 4 19 9 0 6 23 3 51 -5 34 -10 55 -12 61 -6 6 6
17 8 24 5 8 -3 14 0 14 6 0 8 11 10 35 5 20 -3 35 -2 35 3 0 5 14 8 30 5 18
-2 30 0 30 7 0 7 8 8 26 1 18 -7 31 -7 40 1 7 6 22 8 34 4 11 -3 20 -2 20 3 0
5 28 8 63 7 34 -1 65 3 69 9 4 6 15 6 33 -2 21 -10 27 -9 32 4 3 8 12 13 19
10 8 -3 14 -1 14 5 0 7 12 9 34 5 21 -4 36 -2 38 4 2 8 11 8 31 1 22 -9 27 -8
27 4 0 18 5 18 31 4 14 -7 24 -7 33 0 6 6 22 7 35 4 14 -3 26 -1 31 7 6 9 13
9 28 1 27 -15 51 -14 84 3 22 12 33 12 73 -2 36 -11 49 -12 54 -3 6 8 15 9 34
2 16 -6 29 -7 32 -1 3 5 22 8 42 6 20 -2 51 1 70 6 21 6 47 5 71 -1 21 -6 38
-7 40 -2 2 5 18 5 39 -1 25 -7 38 -6 43 1 4 8 24 5 63 -8 35 -12 57 -16 57 -9
0 6 11 8 29 5 15 -3 33 -1 38 4 7 7 31 2 74 -15 44 -18 65 -23 70 -15 5 8 25
6 70 -9 42 -14 68 -17 75 -11 8 7 42 -2 106 -27 51 -20 147 -56 213 -81 232
-86 325 -125 325 -134 0 -10 132 -74 175 -85 14 -3 25 -13 25 -21 0 -14 23
-26 158 -78 39 -15 72 -34 72 -40 0 -7 18 -20 40 -30 22 -10 37 -22 33 -28 -4
-6 0 -8 10 -4 10 4 14 2 11 -6 -3 -8 25 -24 72 -42 46 -18 79 -37 81 -47 3 -9
20 -22 38 -28 18 -6 35 -19 38 -29 2 -11 28 -26 65 -40 38 -14 59 -28 56 -35
-3 -7 7 -18 21 -24 14 -6 25 -18 25 -26 0 -7 25 -24 54 -36 30 -12 62 -33 71
-46 8 -13 23 -24 31 -24 10 0 14 -6 11 -14 -4 -9 1 -17 12 -21 12 -3 33 10 65
40 l47 46 -32 57 c-52 93 -162 252 -250 363 -105 133 -334 362 -469 469 -608
483 -1375 715 -2145 649z"/>
<path d="M1265 5464 c-11 -9 -28 -22 -38 -29 -18 -13 -18 -14 4 -44 l23 -31
23 57 c13 31 23 58 23 60 0 7 -16 1 -35 -13z"/>
<path d="M3124 5219 c-3 -6 -16 -8 -27 -5 -12 3 -27 0 -34 -6 -9 -7 -22 -7
-44 2 -21 9 -33 10 -41 2 -6 -6 -17 -8 -25 -5 -8 3 -18 1 -22 -5 -5 -8 -21 -7
-56 3 -27 9 -51 11 -54 6 -11 -16 -67 -22 -97 -11 -20 8 -30 8 -32 1 -2 -6
-14 -8 -29 -5 -14 4 -28 2 -32 -4 -5 -8 -17 -8 -46 1 -28 8 -40 8 -42 0 -2 -6
-13 -9 -23 -6 -12 3 -20 0 -20 -7 0 -8 -8 -10 -22 -6 -40 12 -68 13 -61 4 3
-6 -3 -7 -17 -3 -14 4 -25 3 -30 -5 -5 -8 -17 -9 -43 -2 -31 9 -38 7 -50 -11
-12 -18 -18 -20 -48 -11 -27 8 -40 7 -66 -8 -24 -13 -39 -15 -57 -8 -16 6 -26
5 -28 -1 -2 -7 -15 -8 -38 -2 -28 8 -42 6 -68 -9 -25 -14 -38 -16 -53 -8 -16
9 -21 7 -31 -15 -9 -19 -16 -24 -32 -19 -12 4 -25 7 -31 6 -46 -4 -70 -11 -73
-21 -2 -6 -8 -8 -14 -5 -6 4 -13 3 -17 -2 -15 -22 -51 -34 -74 -25 -21 8 -26
6 -35 -15 -9 -19 -17 -23 -40 -18 -24 5 -30 2 -35 -16 -3 -12 -11 -20 -19 -19
-17 3 -51 -11 -60 -25 -4 -6 -11 -11 -15 -12 -18 -2 -62 -23 -68 -34 -3 -5
-10 -8 -15 -5 -5 3 -11 -4 -15 -15 -3 -11 -13 -20 -21 -20 -7 0 -32 -8 -53
-17 -38 -16 -42 -23 -83 -128 -37 -96 -42 -118 -39 -172 4 -82 -12 -125 -63
-170 -39 -35 -49 -56 -140 -298 -55 -143 -111 -291 -126 -330 -27 -70 -173
-455 -425 -1120 -75 -198 -157 -415 -181 -482 l-46 -122 47 -118 c49 -122 161
-348 219 -442 l33 -53 19 38 c26 54 81 81 133 65 52 -15 73 -42 79 -99 4 -44
1 -53 -25 -82 -24 -27 -40 -35 -78 -39 l-48 -6 88 -113 c155 -199 365 -406
563 -554 57 -43 100 -66 166 -88 57 -19 92 -26 96 -20 4 7 21 5 48 -4 30 -11
42 -12 45 -3 3 9 19 7 58 -7 36 -12 54 -15 57 -7 2 6 14 8 29 5 15 -4 28 -2
32 5 6 9 21 7 59 -8 35 -14 53 -17 58 -10 3 6 19 8 35 5 17 -3 29 -1 32 7 3 9
10 9 32 -1 22 -10 30 -10 36 -1 4 7 17 9 33 5 14 -3 26 -2 26 3 0 5 28 7 63 6
34 -2 65 2 68 7 4 6 19 6 40 0 26 -7 41 -5 64 8 23 13 35 15 53 7 18 -8 25 -8
32 2 5 9 17 11 34 7 16 -4 26 -2 26 5 0 7 11 8 29 4 16 -3 32 -2 35 4 4 6 13
8 21 4 8 -3 15 0 15 7 0 11 18 10 71 -6 10 -3 20 5 27 21 10 22 15 24 31 15
15 -8 28 -6 53 8 26 15 38 17 56 9 18 -8 26 -7 32 2 5 9 17 11 34 7 15 -4 26
-2 26 4 0 6 10 8 25 4 14 -3 32 -1 40 6 8 6 19 9 25 5 5 -3 10 -1 10 6 0 7 10
9 29 6 16 -3 31 -3 35 0 3 4 27 8 53 9 26 1 49 6 51 12 2 7 16 9 34 5 40 -8
34 17 -6 28 -44 12 -97 58 -117 103 -66 145 44 299 202 284 156 -15 231 -205
127 -323 -33 -39 -33 -39 0 -49 17 -6 22 -3 22 9 0 11 5 15 15 11 8 -3 15 -1
15 5 0 6 14 7 35 3 24 -4 35 -3 35 6 0 7 7 10 15 7 8 -4 17 -2 21 4 3 6 19 7
35 4 16 -4 29 -2 29 3 0 12 33 22 90 27 24 1 46 8 48 13 2 7 14 7 33 2 23 -7
29 -5 29 7 0 9 6 13 15 10 8 -4 17 -1 21 4 3 6 19 8 35 5 22 -4 29 -1 34 15 5
16 13 20 32 16 14 -2 38 2 54 10 16 8 39 14 51 13 30 -3 68 10 68 21 0 5 11 7
25 3 14 -3 32 -1 40 6 8 6 19 9 25 5 5 -3 10 -1 10 6 0 6 8 9 20 6 11 -3 20
-1 20 4 0 5 13 9 29 9 17 0 33 5 36 10 4 6 11 7 17 4 6 -4 13 -3 17 2 13 19
49 32 73 27 20 -4 28 0 33 16 5 16 12 20 30 15 16 -4 33 1 50 14 14 12 34 18
45 15 11 -3 20 -1 20 5 0 10 37 25 58 23 6 -1 12 3 12 9 0 8 11 9 30 5 25 -6
31 -3 41 19 10 21 15 23 36 15 20 -7 25 -5 35 16 8 18 17 24 30 19 12 -4 26 2
37 15 10 12 26 21 35 21 9 0 16 4 16 10 0 5 6 7 13 4 7 -2 19 6 26 20 8 13 19
22 26 20 7 -3 27 10 45 28 19 18 37 33 42 33 5 0 12 5 16 10 4 6 12 10 17 11
30 3 55 18 61 36 4 15 13 19 34 16 22 -3 31 1 39 19 7 14 16 20 26 17 8 -3 15
-1 15 5 0 6 7 11 15 11 9 0 18 7 22 16 3 8 12 13 20 10 8 -3 11 -1 8 4 -3 6 5
10 19 10 16 0 27 7 31 20 3 11 15 20 26 20 10 0 19 5 19 11 0 6 6 9 14 6 8 -3
18 4 24 18 8 16 23 26 47 31 21 4 35 12 35 21 0 9 6 13 14 10 8 -3 19 5 26 18
7 13 18 21 24 19 7 -3 18 6 25 19 9 17 19 23 36 19 19 -3 27 3 41 29 9 19 20
36 25 39 4 3 28 55 52 115 242 594 291 1232 141 1856 -40 171 -48 180 -154
193 -151 20 -259 127 -277 276 -4 32 -13 56 -23 63 -10 7 -17 16 -16 22 0 5
-23 18 -52 30 -29 11 -50 25 -48 31 2 6 -6 17 -20 24 -13 8 -24 19 -24 25 0 7
-29 24 -65 40 -36 15 -62 31 -59 36 3 5 -11 16 -30 26 -20 9 -36 23 -36 30 0
8 -17 21 -37 29 -88 35 -113 48 -113 59 0 6 -22 22 -50 35 -27 13 -50 29 -50
36 0 6 -17 19 -37 27 -36 14 -39 14 -63 -7 -44 -39 -251 -227 -397 -360 -138
-126 -141 -129 -131 -158 30 -85 -17 -200 -97 -242 -45 -23 -135 -27 -173 -7
-12 6 -22 8 -22 3 0 -4 51 -100 114 -213 62 -112 182 -328 265 -478 115 -209
164 -287 202 -325 95 -95 148 -246 149 -423 l0 -93 -120 0 -120 0 0 74 c0 255
-108 390 -310 388 -255 -3 -466 -242 -557 -632 -33 -142 -42 -363 -19 -470 32
-149 107 -259 210 -305 181 -82 385 1 486 196 l34 66 -18 38 c-38 79 -2 170
79 201 39 15 52 15 88 4 71 -21 107 -68 107 -140 0 -22 5 -40 10 -40 20 0 9
-38 -44 -145 -86 -173 -173 -268 -309 -337 -175 -88 -421 -92 -585 -9 -121 61
-220 180 -266 318 -36 112 -46 180 -46 321 0 468 218 899 536 1057 82 41 207
75 276 75 26 0 48 2 48 5 0 8 -371 698 -381 709 -8 9 -30 -8 -136 -105 l-53
-47 -68 -324 -68 -323 -116 -3 -116 -3 8 38 c5 21 38 178 74 348 36 171 115
545 176 833 60 288 110 525 110 528 0 2 52 4 115 4 63 0 115 -3 115 -8 0 -4
-34 -169 -75 -366 -41 -197 -75 -365 -75 -373 0 -8 40 22 90 68 72 65 92 90
101 123 6 23 22 55 35 72 25 34 97 74 132 74 15 0 92 66 239 205 l216 205 146
1 146 0 -48 22 c-27 12 -46 25 -42 29 4 4 -13 17 -38 29 -26 13 -48 29 -49 36
-3 16 -92 53 -468 195 -383 145 -431 161 -443 149 -6 -6 -18 -6 -35 0 -17 7
-27 6 -32 -1 -5 -7 -32 -3 -85 14 -55 17 -81 22 -86 14 -4 -6 -12 -7 -19 -3
-7 4 -16 2 -20 -4 -5 -10 -17 -10 -51 1 -51 15 -141 17 -151 4 -3 -5 -21 -2
-41 7 -41 20 -44 20 -53 6z m-319 -320 c59 -16 120 -84 134 -149 12 -58 8 -88
-22 -142 -58 -106 -209 -131 -299 -50 -50 45 -68 85 -68 152 0 85 50 158 127
185 47 17 76 18 128 4z m-502 -158 c174 -45 279 -128 365 -286 52 -96 52 -97
52 -186 l0 -89 -119 0 -118 0 -6 67 c-8 83 -52 178 -104 224 -70 61 -135 84
-253 87 -148 5 -242 -28 -321 -111 -65 -69 -84 -199 -41 -282 43 -84 86 -109
347 -202 210 -75 279 -110 351 -175 100 -92 144 -192 144 -328 0 -326 -245
-530 -638 -530 l-108 0 -67 -317 c-36 -174 -64 -320 -61 -325 3 -4 155 -8 339
-8 l334 0 15 73 c9 39 45 205 79 367 l63 295 118 3 c98 2 117 0 113 -11 -8
-21 -21 -110 -18 -121 9 -34 1 -91 -17 -115 -17 -24 -153 -633 -293 -1323
l-20 -98 24 -32 c64 -87 60 -187 -11 -261 -41 -44 -81 -60 -143 -60 -96 0
-178 64 -195 152 -6 29 -10 32 -32 26 -41 -10 -129 14 -174 48 -155 118 -120
364 61 437 77 31 195 9 253 -47 21 -20 29 -23 33 -12 4 13 105 476 105 485 0
2 -154 3 -342 2 l-343 -3 -87 -405 c-48 -223 -88 -406 -88 -407 -1 -7 -230 -2
-230 5 0 4 11 59 25 122 218 1022 335 1576 335 1585 0 5 -23 24 -51 40 -50 29
-132 106 -165 154 -59 84 -101 213 -106 326 l-3 70 116 3 116 3 11 -90 c13
-110 48 -188 112 -251 107 -108 290 -145 464 -94 146 42 236 151 237 288 1 81
-23 138 -79 188 -57 51 -109 76 -312 148 -205 73 -281 112 -353 183 -170 166
-165 447 10 621 89 88 207 150 338 176 81 16 258 11 338 -9z m-931 -527 c9 -3
33 -23 52 -44 27 -30 36 -50 38 -78 2 -50 1 -53 -7 -85 -4 -15 -3 -27 1 -26
31 5 59 -5 85 -30 43 -43 41 -101 -5 -147 -26 -26 -42 -34 -71 -34 -53 0 -105
53 -105 107 l0 38 -54 1 c-43 0 -61 6 -91 28 -64 49 -80 117 -46 193 35 75
106 103 203 77z m3110 -322 c39 -23 72 -93 65 -139 -13 -80 -73 -126 -155
-120 -143 10 -182 197 -54 263 47 24 99 23 144 -4z m1114 -48 c41 -20 64 -59
64 -110 0 -51 -53 -104 -104 -104 -78 0 -134 59 -123 127 7 41 21 59 62 85 37
22 57 23 101 2z m-362 -51 c169 -119 71 -380 -136 -361 -138 14 -218 172 -148
296 56 100 190 131 284 65z m-186 -1753 c100 -61 96 -205 -8 -262 -47 -26
-125 -20 -170 12 -85 60 -78 195 12 250 44 27 122 27 166 0z m-303 -304 c72
-30 86 -134 25 -188 -76 -69 -199 -6 -186 95 6 56 56 105 109 106 10 1 33 -5
52 -13z m-1560 -85 c33 -18 75 -91 75 -131 0 -49 -42 -113 -90 -137 -24 -13
-56 -23 -70 -23 -84 0 -167 93 -155 175 18 119 134 176 240 116z"/>
<path d="M881 5136 c-63 -64 -79 -85 -67 -89 9 -4 16 -3 16 1 0 15 47 27 100
27 30 0 58 4 62 9 4 6 27 3 60 -8 34 -11 54 -13 56 -6 2 6 15 7 29 4 18 -5 24
-3 19 4 -4 8 -2 10 7 6 10 -3 18 5 26 27 6 18 9 34 7 36 -2 3 -22 -1 -45 -8
-54 -16 -115 2 -157 46 l-31 33 -82 -82z"/>
<path d="M751 4813 c0 -7 -12 -13 -25 -13 -16 0 -27 -7 -31 -20 -5 -15 -12
-18 -36 -13 -17 3 -29 1 -29 -5 0 -5 -16 -13 -35 -16 -19 -4 -35 -11 -35 -16
0 -6 -6 -10 -12 -10 -15 0 -46 -43 -122 -169 -385 -635 -516 -1424 -360 -2165
14 -66 28 -125 31 -130 4 -5 26 42 50 105 105 276 157 413 403 1064 144 380
279 735 300 790 34 89 37 101 23 110 -9 6 -34 25 -55 44 -40 35 -71 110 -63
153 13 66 19 82 48 115 25 28 28 36 16 44 -8 5 -10 9 -4 9 5 0 4 5 -3 12 -7 7
-12 18 -12 26 0 15 -29 48 -31 35 -1 -4 -5 8 -9 27 -4 19 -8 29 -9 23z"/>
<path d="M1010 4710 c0 -5 5 -10 11 -10 5 0 7 5 4 10 -3 6 -8 10 -11 10 -2 0
-4 -4 -4 -10z"/>
<path d="M5536 1404 c-6 -22 -11 -25 -36 -22 -22 3 -31 -1 -39 -19 -6 -13 -17
-23 -25 -23 -7 0 -16 -7 -20 -15 -3 -8 -12 -15 -19 -15 -11 0 -13 -11 -9 -45
11 -98 -95 -163 -177 -108 -37 25 -61 24 -74 -4 -6 -13 -16 -22 -24 -19 -7 3
-13 1 -13 -4 0 -6 -9 -10 -20 -10 -10 0 -24 -9 -30 -19 -7 -14 -17 -18 -35
-15 -20 3 -27 -1 -35 -21 -6 -15 -15 -23 -23 -19 -8 3 -18 -6 -25 -20 -8 -18
-16 -23 -31 -19 -12 3 -28 0 -36 -7 -8 -6 -19 -9 -25 -5 -5 3 -10 1 -10 -4 0
-6 -9 -11 -20 -11 -11 0 -20 -5 -20 -11 0 -7 -11 -9 -29 -6 -24 5 -31 2 -36
-14 -6 -17 -13 -20 -36 -15 -22 4 -31 1 -39 -15 -9 -16 -18 -19 -39 -14 -21 4
-30 2 -35 -10 -3 -9 -10 -13 -16 -10 -5 3 -10 1 -10 -4 0 -6 -11 -11 -25 -11
-14 0 -25 -5 -25 -12 0 -6 -3 -8 -7 -5 -3 4 -12 2 -20 -4 -7 -6 -23 -9 -34 -6
-15 4 -27 -1 -39 -16 -16 -19 -21 -20 -54 -10 -34 11 -36 10 -42 -13 -6 -22
-10 -24 -40 -18 -21 4 -34 2 -34 -4 0 -7 -10 -8 -30 -2 -18 5 -30 5 -30 -1 0
-5 -9 -9 -20 -9 -11 0 -20 -5 -20 -11 0 -6 -6 -9 -14 -6 -8 3 -17 -1 -20 -9
-4 -10 -11 -11 -30 -4 -21 8 -28 5 -40 -12 -14 -20 -19 -20 -53 -10 -20 6 -40
8 -43 4 -13 -18 -52 -32 -74 -26 -19 4 -26 1 -31 -15 -5 -16 -12 -19 -36 -14
-19 4 -29 1 -29 -7 0 -7 -7 -10 -15 -6 -9 3 -18 -1 -21 -9 -4 -11 -12 -12 -32
-4 -18 7 -28 7 -30 0 -2 -6 -12 -11 -23 -11 -10 0 -19 -4 -19 -9 0 -5 -9 -7
-20 -4 -11 3 -28 2 -37 -2 -10 -5 -24 -7 -30 -6 -7 1 -13 -3 -13 -10 0 -7 -9
-9 -24 -5 -13 3 -37 -1 -55 -10 -18 -9 -43 -14 -57 -11 -13 2 -24 0 -24 -6 0
-5 -9 -7 -20 -4 -13 3 -20 0 -20 -8 0 -10 -7 -12 -29 -5 -22 6 -31 5 -35 -6
-4 -11 -10 -12 -31 -2 -18 8 -29 8 -33 2 -9 -13 -43 -28 -59 -25 -7 1 -13 -3
-13 -9 0 -5 -9 -10 -20 -10 -11 0 -20 -4 -20 -9 0 -6 -12 -6 -30 -1 -18 5 -30
5 -30 -1 0 -5 -9 -9 -20 -9 -11 0 -20 -5 -20 -11 0 -7 -11 -8 -29 -4 -16 3
-31 2 -34 -2 -3 -5 -33 -8 -66 -7 -34 0 -61 -3 -61 -9 0 -5 -12 -6 -27 -3 -15
4 -29 3 -33 -4 -5 -8 -15 -8 -34 -1 -23 9 -28 8 -37 -13 -10 -21 -15 -23 -40
-16 -17 5 -29 5 -29 -1 0 -5 -5 -9 -11 -9 -5 0 -7 6 -4 12 4 7 -2 3 -13 -9
-18 -20 -23 -21 -57 -10 -30 9 -39 9 -43 -1 -2 -7 -8 -9 -13 -6 -6 3 -15 2
-22 -3 -7 -5 -37 -9 -67 -8 -30 0 -58 -4 -62 -9 -5 -7 -20 -7 -47 0 -23 6 -41
7 -41 3 0 -5 -9 -9 -19 -9 -11 0 -22 -4 -26 -9 -3 -6 -24 -3 -50 6 -36 12 -49
12 -60 3 -8 -6 -18 -9 -24 -6 -5 3 -11 1 -13 -5 -3 -8 -14 -8 -42 0 -22 5 -44
7 -50 3 -6 -3 -23 -5 -38 -3 -16 1 -28 -2 -28 -8 0 -6 -16 -4 -42 5 -23 8 -44
11 -47 7 -11 -14 -95 -12 -135 3 -21 8 -41 12 -44 9 -8 -7 -6 -8 86 -54 547
-274 1208 -372 1824 -270 61 10 68 14 92 50 51 77 174 106 253 59 l36 -21 81
26 c317 105 652 287 926 505 135 107 363 336 469 469 90 113 201 274 201 291
0 21 -18 9 -24 -16z m-2256 -929 c35 -18 60 -62 60 -105 0 -94 -113 -152 -197
-100 -40 24 -54 50 -55 102 -1 93 104 149 192 103z"/>
<path d="M3300 699 c0 -5 5 -7 10 -4 6 3 10 8 10 11 0 2 -4 4 -10 4 -5 0 -10
-5 -10 -11z"/>
</g>
</svg>
