<?xml version="1.0" encoding="UTF-8"?><svg id="uuid-22917a84-56c5-45e2-87fb-0ef53c1e892c" xmlns="http://www.w3.org/2000/svg" width="11.33in" height="6.02in" viewBox="0 0 815.42 433.54"><path d="M808.13,274.3c-.72-8.58-.2-17.22.19-25.82.59-13,.87-26.01.93-39.02.28-64.53-3.67-129.82-14.63-193.42-9.47,10.66-18.94,21.31-28.41,31.97l-10.57,11.89c-11.98,13.48-23.98,26.98-35.13,41.15-7.87,10-15.31,20.33-22.3,30.96-2.88,4.38-5.69,8.81-8.83,13.01-3.67,4.91-7.79,9.47-11.89,14.02-4.43,4.91-9.53,9.48-13.02,15.1-4.07,6.54-8.13,13.08-12.2,19.62-.75,1.2-1.52,2.43-2.62,3.32-2.9,2.33-7.38,1.6-10.34-.65-2.97-2.25-4.79-5.65-6.55-8.93-11.2-20.8-23.8-40.84-37.68-59.96-27.56-37.94-60.56-75.07-102.82-96.85-5.43-2.8-10.99-5.33-16.65-7.62-22.72-9.18-46.85-14.35-71.06-17.77-24.88-3.51-50.26-6.35-75.41-4.69-34.04,2.25-66.64,14.05-98.43,26.43-21.59,8.41-42.18,19.81-64.35,26.55-11.78,3.58-21.96,11.01-31.62,18.65C82.75,113.33,38.86,163.89.23,217.73c11.28.63,22.57,1.19,33.83.27,29.61-2.4,58.88-12.73,88.36-9.11,4.33.53,8.64,1.36,13.01,1.38,4.62.02,9.19-.88,13.79-1.29,15.18-1.37,31.13.93,46.37.92,20.5,0,40.72,4.36,60.76,8.71,4,.87,8.59,2.21,10.14,5.99,1.49,3.65-.85,8.01-4.3,9.92-3.45,1.91-7.63,1.91-11.54,1.44-8.93-1.08-17.44-4.32-26.21-6.3-30.27-6.84-62.06,1.5-92.83-2.5-4.76-.62-9.49-1.53-14.29-1.8-5.85-.33-11.71.31-17.54.95-17.77,1.95-35.53,3.9-53.3,5.85-13.21,1.45-26.95,3.96-40.03,1.61,3.11,11.84,6.27,23.82,11.72,34.84,5.31,10.73,13.18,20.04,18.4,30.84,2.78,5.75,6.33,11.12,10.45,16,8.2,9.71,18.55,17.5,29.81,23.32,3.52,1.82,7.12,3.45,10.61,5.32,7.7,4.13,13.84,10.32,21.18,14.71,7.83,4.68,15.74,9.04,23.35,14.12,15.81,10.56,31.09,22.05,48.17,30.53,14.34,7.11,29.31,12.93,44.79,17.02,21.24,5.61,42.89,9.66,64.72,12.09,4.18.47,8.37.87,12.58.85,7.98-.03,15.87-1.58,23.73-3,14.88-2.68,29.87-4.9,44.96-5.94,9.01-.62,18.05-.83,27.05-1.57,16.8-1.38,32.47-5.7,48.82-9.28,13.71-3,29.09-3.1,40.89-11.62,9.16-6.62,20.89-8.6,30.64-14.31,10.56-6.19,20.71-12.33,31.49-18.14,8.4-4.54,16.25-10.1,23.31-16.54,12.98-11.83,23.12-26.37,33.67-40.42,15.25-20.32,34.73-38.07,48.42-59.47,1.37-2.14,2.79-4.34,4.82-5.87s4.86-2.28,7.17-1.22c1.35.62,2.38,1.77,3.36,2.88,5.5,6.23,11.04,12.51,15.1,19.76,2.43,4.32,4.32,8.97,7.21,13,4.2,5.85,10.26,10.04,15.42,15.07,8.95,8.72,15.16,19.9,24,28.74,6.55,6.55,14.5,11.76,20.05,19.17,2.29,3.05,4.14,6.44,6.66,9.29,2.29,2.59,5.08,4.69,7.86,6.73,12.23,8.99,24.8,17.63,37.74,25.56.46-2.38.91-4.77,1.37-7.15,1.76-9.17,3.51-18.33,5.27-27.5,1.62-8.46,4.06-17.12,4.05-25.7-.02-17.6-5.72-34.16-7.17-51.58ZM288.31,138.95c-5.97,3.92-13.47,5.03-20.58,4.27-7.11-.75-13.91-3.24-20.49-6.03-2.19-.93-4.41-1.92-6.18-3.52-5.08-4.59-4.97-12.46-4.46-19.29.51-6.92,1.13-14.15,4.83-20.02,2.04-3.23,4.91-5.85,7.95-8.17,5.7-4.37,12.48-7.92,19.66-7.71,17.49.52,29.11,15.45,31.16,31.95,1.34,10.77-2.81,22.57-11.88,28.52Z" style="stroke:#000; stroke-miterlimit:10; stroke-width:.25px;"/></svg>