<?xml version="1.0" encoding="UTF-8"?><svg id="uuid-d20d6db8-a0be-4890-b1be-e4bb5f2d7fa3" xmlns="http://www.w3.org/2000/svg" width="11.19in" height="6.04in" viewBox="0 0 805.68 434.9"><path d="M.16,215.55s-.06.04-.09.06" style="fill:none; stroke:#000; stroke-miterlimit:10; stroke-width:.25px;"/><path d="M805.07,311.61c-2-10-6-20-6-30-2-89,0-178-14.81-265.17-3.19,3.53-7.05,6.63-9.53,10.72-16.19,17.83-32.62,34.4-47.65,54.44-1,1-3,2-4,3-17,20-29,41-45,62-14,16-25,30-36,48-6,9-15,2-19-4-8-14-14-28-24-41-2-3-2-5-4-8-41-60-87-110-158-128-57-14-113-20-169-3-11.55,3.51-23.02,7.35-34.41,11.35-56.63,19.86-117.02,44.63-157.91,90.42-5.09,5.7-9.76,11.76-14.41,17.82-22.28,28.96-34.23,61.17-34.75,97.93,28.95-19.2,60.78-34.03,94.1-43.86,6.43-1.9,12.93-3.61,19.5-4.93,25.8-5.18,52.43-4.19,78.28.1,25.24,4.19,49.27,9.15,70.38,24.09,12.8,9.06,20.22,18.04,23.22,33.56,3.2,16.54,3.06,33.89-1.67,50.13-5.6,19.24-17.92,36.78-35.13,47.03-17.63,10.5-38.85,12.83-59.35,13.58-26.22.96-52.51-.26-78.52-3.64-8.95-1.16-17.88-2.59-26.62-4.87-12.83-3.35-25.09-8.52-36.9-14.5-8.03-4.07-20.1-13.63-29.26-14.09,7.35,17.45,22.39,34.68,35.15,48.49,13.84,14.98,29.82,28.1,47.96,37.56,14.16,7.38,29.38,12.45,44.53,17.49,9.79,3.26,19.59,6.51,29.53,9.26,43.81,12.09,93.28,16.01,137.3,3.06,44-3,88-10,131-20,14-7,29-13,43-20,17-9,33-20,48-32,21-18,34-40,52-61,10-12,22-22,28-36,4-10,18-16,25-5,5,8,7,16,12,24,18,26,40,45,62,67,3,4,6,7,9,11,2,2,5,4,7,7,10,8,21,14,32,20,2,2,4,4,6.17,5.02,3.13-11.59,3.79-23.71,6.84-35.27,3.99-12.74,4.99-25.74,3.99-39.74ZM284.74,151.47c-8.48,5.57-19.13,7.14-29.22,6.07-10.09-1.07-19.75-4.6-29.09-8.56-3.11-1.32-6.26-2.73-8.77-5-7.22-6.52-7.05-17.69-6.33-27.39.73-9.82,1.6-20.09,6.86-28.41,2.9-4.58,6.98-8.3,11.28-11.6,8.09-6.2,17.72-11.25,27.9-10.95,24.83.74,41.32,21.94,44.23,45.35,1.9,15.29-3.98,32.04-16.86,40.49Z" style="stroke:#000; stroke-miterlimit:10; stroke-width:.5px;"/></svg>