<?xml version="1.0" encoding="UTF-8"?><svg id="a" xmlns="http://www.w3.org/2000/svg" width="312.56mm" height="217.22mm" viewBox="0 0 886 615.75"><path d="M648.74,266c2.27-4.23,4.99-23.99-12.46-28.57-12.71-3.34-19.52,4.27-26.22-.63-6.55-4.79-34.22-13.5-34.22,16.55v65.21l-66.24-.02s-.15-47.98-.08-64.06c.08-20.14-13.93-36.42-32.33-40.93-16.2-3.97-28.71-5.18-50.19,7.23-17.68,10.22-35.18,31.95-35.18,31.95l-66.41,78.79v-77.46s1.68-22.37-20.23-28.45c-16.62-4.88-56.05,0-50.74,30,5.28,29.78,6.95,37.74,4.68,46.77-1.29,5.11-4.91,8.54-10.91,8.62-9.05.12-12.9-11.14-16.04-21.91-4.18-14.32-15.78-30.43-32.03-35.2-15.03-4.41-55.63-9.96-74.93,23.57-18.84,32.73,8.12,60.59,20.86,64.73,6.18,2.94,30.84,8.08,43.43,11.08,10.66,2.54,24.62,16.18,11.53,31.45-10.89,12.7-44.38,8.3-52.18-2.21-11.63-15.66-4.22-35.69-28.74-42.3-16.77-2.5-27.29-13.52-24.96-25.46.9-4.64,3.21-7.87,3.69-12.75.51-5.23-1.13-9.29-1.67-10.77-5.52-15.19-22.15-17.07-22-26.97,0-.26.67-5.69,3.52-7.93,4.63-3.64,9.73,3.97,18.61,1.98,7.42-1.66,12.47-8.07,16.46-13.22,2.05-2.64,4.45-5.63,5.41-13.17,1.27-9.04-12.99-19.2-23.81,1.45-3.92,7.48-9.15,8.18-13.93,7.68-6.65-.7-9.62-8.24-15.37-17.77-8.83-14.64-39.41-2.89-34.09,19.69,7.25,30.82,14.65,33.81,24.85,41.56,6.31,4.79,11.61,10.6,6.03,33.57-6.03,24.8,13.92,32.79,29.84,38.35,15.15,5.29,21.96,29.94,27.17,37.56,16.87,24.7,40.83,25.42,56.71,25.42,22.74,0,29.25-3.82,33.34-5.71,2.73-1.45,19.77-8.63,26.85-28.41,4.37-17.9-1.2-31.78-5.37-38.6-4.78-7.83-19.16-21.31-40.8-24.58-34.12-5.15-40.24-15.45-39.6-24.79.47-6.84,7.38-16.87,23.5-16.42,22.86.64,29.71,11.24,31.87,23.18,2.39,13.19,11.94,25.1,20.62,29.06,4.38,3.19,20.27,8.1,32.55,3.92,11.48-3.9,19.31-9.36,23.67-27.13,2.41-9.83,3.65-20.18-3.89-52.76-1.22-8.02,12.46-10.32,12.44-.3l-.57,162.53h34.22l-.04-46.33,24.01-25.93s33.83,51.05,47.06,70.11c10.62,15.3,21.22,32.97,40.76,43.34,15.01,7.97,33.43,10.29,45.23-1.64,7.07-7.14,5.39-10.16,12.17-12.87,3.75-1.5,8.72.03,14.16.69,11.65,1.42,15-7.67,13.05-13.72-2.41-7.48-12.29-10.44-12.29-26.24v-57.91l66.32-.22v70.72h34.22c-.89-53.25,0-158.24,0-165.54,0-.56-.04-2.4,1.14-3.34,0,0,.73-.57,1.9-.57,2.11.02,9.5,2.98,8.08,9.23-6.27,27.49,10.95,28.49,6.49,46.77-5.32,21.79,3.04,24.34,9.27,26.33,4.18,1.33,10.29-1.49,12.3-5.74,1.19-2.52,1.26-5.82-.54-9.82-6.13-13.58-4.97-29.47-4.97-29.47,0,0,.75-13.33,5.01-21.27ZM475.29,419.42c0,9.47-3.11,17.54-14.93,16.06-8.24-1.04-14.84-7.23-21.71-16.06-3.31-4.25-65.51-97.6-65.51-97.6l60.78-67.09s8.22-8.87,18.24-8.73c12.69.18,23.13,4.09,23.13,18.95v154.48Z" style="fill:none; stroke:#1d1d1b; stroke-miterlimit:10; stroke-width:.5px;"/><path d="M845.91,435.4c-2.61-19-22.02-15.67-20.11-32.78,1.48-13.33,15.9-15.38,16.76-37.99.82-21.49-19.07-31.83-32.85-31.44-12.12.34-27.49,2.71-30.97,24.1-3.41,20.92-17.73,32.93-46.28,32.65-21.22-.21-47.92-18.11-47.43-52.6.49-34.55,19.22-54.44,48.72-55.17,40.23-.99,44.53,31.95,44.53,31.95l31.65-.19c-.56-17.82-16.8-40.54-30.37-48.8-10.98-6.69-42.44-19.39-79.57-5.42-34.56,15.98-43.72,43.64-44.34,72.04-.81,37.49,14.69,66.84,45.58,80.24,24.67,10.71,51.73,8.34,70.94-.32,29.71-15.08,33.38-37.55,39.35-51.21,1.93-4.42,10.6-1.22,2.49,14.52-2.85,5.53-15.79,24.62-17.7,33.08-4.3,19.06,12.31,20,18.46,25.77,6.15,5.77-10.57,11.69-14.62,15-5.72,4.68-10.54,9.85-1.15,30.01,9.18,19.71,17.64,11.45,15.39,3.08-1.82-6.76-.96-26.47,12.27-25.18,17.01.26,20.21-14.15,19.22-21.33Z" style="fill:none; stroke:#1d1d1b; stroke-miterlimit:10; stroke-width:.5px;"/><path d="M118.88,239.28c0,1.15-1.09,2.36-2.2,2.36s-1.57-1.36-1.57-2.51,1.25-2.51,2.36-2.51,1.41,1.52,1.41,2.67Z" style="fill:#fff; stroke:#1d1d1b; stroke-miterlimit:10; stroke-width:.5px;"/><path d="M113.78,236.38c0,.98-1.14,2.08-1.96,2.08s-2.28-.87-2.28-1.85,1.45-2.28,2.28-2.28,1.96,1.07,1.96,2.04Z" style="fill:#fff; stroke:#1d1d1b; stroke-miterlimit:10; stroke-width:.5px;"/><path d="M100.05,305.13c0,1.84-2.21,4.46-3.73,4.46s-1.78-2.62-1.78-4.46.91-4.78,2.43-4.78,3.08,2.95,3.08,4.78Z" style="fill:#fff; stroke:#1d1d1b; stroke-miterlimit:10; stroke-width:.5px;"/><path d="M87.24,308.46c0,1.79-1.08,4.05-2.92,4.05s-2.27-3.24-2.27-5.03,1.25-3.57,3.08-3.57,2.11,2.75,2.11,4.54Z" style="fill:#fff; stroke:#1d1d1b; stroke-miterlimit:10; stroke-width:.5px;"/><path d="M112.68,249.25c-.35,1.81-1.6,3.11-3.31,3.82-2.77,1.15-4.91-1.12-4.23-3.8.45-1.79,2.6-4.22,4.37-4.75,2.39-.72,3.64,2.25,3.16,4.73Z" style="fill:#fff; stroke:#1d1d1b; stroke-miterlimit:10; stroke-width:.5px;"/><path d="M103.89,243.64c0,1.76-2.22,2.87-3.5,2.87s-2.62-.74-2.62-2.5,1.85-4.5,3.12-4.5,3,2.36,3,4.12Z" style="fill:#fff; stroke:#1d1d1b; stroke-miterlimit:10; stroke-width:.5px;"/><path d="M96.2,257.5c0,1.42-1.6,2.88-3.54,2.94-2.19.06-4.75-2.03-4.66-3.48.09-1.42,2.84-3.23,4.79-3.23s3.41,2.35,3.41,3.77Z" style="fill:#fff; stroke:#1d1d1b; stroke-miterlimit:10; stroke-width:.5px;"/><path d="M92.05,250.25c0,.98-2.1,1.83-3.76,1.83s-3.01-.79-3.01-1.77,1.88-2.52,3.54-2.52,3.22,1.49,3.22,2.47Z" style="fill:#fff; stroke:#1d1d1b; stroke-miterlimit:10; stroke-width:.5px;"/><path d="M61.22,256.55c0,2.76.92,3.9,2.42,4.44,1.37.49,2.51-.18,3.89-2.58s-.29-5.34-1.74-5.48c-1.18-.11-4.57.85-4.57,3.62Z" style="fill:#fff; stroke:#1d1d1b; stroke-miterlimit:10; stroke-width:.5px;"/><path d="M79.78,256.41c0,2.58-2.46,3.8-4.23,3.8s-3.2-2.09-3.2-4.68,3.03-4.54,4.8-4.54,2.63,2.83,2.63,5.42Z" style="fill:#fff; stroke:#1d1d1b; stroke-miterlimit:10; stroke-width:.5px;"/><path d="M85.04,272.71c0,1.93-1.29,3.99-3.75,3.99s-5.65-1.71-5.65-3.64,2-4.39,4.46-4.39,4.94,2.11,4.94,4.05Z" style="fill:#fff; stroke:#1d1d1b; stroke-miterlimit:10; stroke-width:.5px;"/><path d="M70.7,279.07c0,2.44-1.75,3.68-2.9,3.77-2.17.16-3.89-1.22-3.89-3.66s1.21-4.49,3.39-4.49,3.39,1.94,3.39,4.38Z" style="fill:#fff; stroke:#1d1d1b; stroke-miterlimit:10; stroke-width:.5px;"/><path d="M84.48,291.1c0,2.05-1.07,5.65-3.28,5.65s-3.62-2.36-3.62-4.41-1.44-3.27.9-4.75c1.86-1.18,5.99,1.45,5.99,3.51Z" style="fill:#fff; stroke:#1d1d1b; stroke-miterlimit:10; stroke-width:.5px;"/><path d="M98.16,286.73c0,2.7-.58,6.11-2.94,6.11s-4.64-3.18-4.64-5.88-.21-5.65,2.15-5.65,5.43,2.73,5.43,5.43Z" style="fill:#fff; stroke:#1d1d1b; stroke-miterlimit:10; stroke-width:.5px;"/><path d="M88.11,326.04c1.26,3.01,1.16,4.67-.41,5.33s-4.02.18-5.28-2.82-.74-6.43.83-7.09,3.6,1.58,4.86,4.59Z" style="fill:#fff; stroke:#1d1d1b; stroke-miterlimit:10; stroke-width:.5px;"/><path d="M99.32,320.58c0,2.34-1.97,5.09-4.07,5.09s-3.28-2.29-3.28-4.64,1.51-6.22,3.62-6.22,3.73,3.42,3.73,5.77Z" style="fill:#fff; stroke:#1d1d1b; stroke-miterlimit:10; stroke-width:.5px;"/><path d="M105.65,345.18c0,2.26-3.24,2.05-6.5,2.05s-4.12-2.13-4.2-3.11c-.11-1.31.94-2.59,4.2-2.59s6.5,1.39,6.5,3.65Z" style="fill:#fff; stroke:#1d1d1b; stroke-miterlimit:10; stroke-width:.5px;"/><path d="M112.6,337.7c0,2.18-3.53,1.34-5.79,1.34s-4.1-2.54-4.1-4.72,2.81-1.51,5.08-1.51,4.81,2.71,4.81,4.9Z" style="fill:#fff; stroke:#1d1d1b; stroke-miterlimit:10; stroke-width:.5px;"/><path d="M129.97,346.07c0,2-.07,2.94-2.85,2.94s-5.7-1.03-5.7-3.03,1.85-4.1,4.63-4.1,3.92,2.19,3.92,4.19Z" style="fill:#fff; stroke:#1d1d1b; stroke-miterlimit:10; stroke-width:.5px;"/><path d="M123.74,357c0,1.5-3.21,2.07-5.35,2.07s-3.59-2.73-3.12-4.15c.62-1.85,2.67-2,4.81-2s3.65,2.58,3.65,4.08Z" style="fill:#fff; stroke:#1d1d1b; stroke-miterlimit:10; stroke-width:.5px;"/><path d="M143.19,363.85c0,2.64-.56,3.17-2.42,3.17s-4.34-1.19-4.34-3.84.81-4.84,2.67-4.84,4.09,2.86,4.09,5.5Z" style="fill:#fff; stroke:#1d1d1b; stroke-miterlimit:10; stroke-width:.5px;"/><path d="M137.94,372.68c0,1.64-.66,3.17-2.16,3.17s-3.91-1.54-4.09-3.17c-.21-1.87.31-4.86,3.53-2.97,1.29.76,2.71,1.33,2.71,2.97Z" style="fill:#fff; stroke:#1d1d1b; stroke-miterlimit:10; stroke-width:.5px;"/><path d="M233.75,319c0,1.92-1.99,1.9-5.01,1.9s-6.04-3.36-6.04-5.28,3.07-2.71,6.09-2.71,4.96,4.17,4.96,6.09Z" style="fill:#fff; stroke:#1d1d1b; stroke-miterlimit:10; stroke-width:.5px;"/><path d="M228.49,329.99c0,2.33-3.58,2.68-6.19,2.68s-5-5.52-5-7.85,3.87-1.66,6.47-1.66,4.71,4.5,4.71,6.83Z" style="fill:#fff; stroke:#1d1d1b; stroke-miterlimit:10; stroke-width:.5px;"/><path d="M247.03,330.24c0,1.1-1.99,3-3.5,3s-4.63-1.68-4.63-2.77,2.56-3.39,4.07-3.39,4.07,2.07,4.07,3.16Z" style="fill:#fff; stroke:#1d1d1b; stroke-miterlimit:10; stroke-width:.5px;"/><path d="M246.54,338.5c0,1.92-1.79,3.16-4.74,3.16s-4.74-1.24-4.74-3.16,2.47-2.26,5.41-2.26,4.06.34,4.06,2.26Z" style="fill:#fff; stroke:#1d1d1b; stroke-miterlimit:10; stroke-width:.5px;"/><path d="M280.78,323.79c0,2.47-2.85,5.01-4.56,5.01s-2.48-1.14-2.48-3.61,2.23-5.87,3.94-5.87,3.1,2,3.1,4.47Z" style="fill:#fff; stroke:#1d1d1b; stroke-miterlimit:10; stroke-width:.5px;"/><path d="M272.16,320.23c0,2.33-2.12,4.55-3.42,4.55s-4.47-1.77-4.47-4.1,4.56-5.19,5.87-5.19,2.03,2.41,2.03,4.74Z" style="fill:#fff; stroke:#1d1d1b; stroke-miterlimit:10; stroke-width:.5px;"/><path d="M285.46,308.5c0,2.33-.07,4.22-1.58,4.22s-4.06-.76-4.06-3.09,2.55-5.35,4.06-5.35,1.58,1.89,1.58,4.22Z" style="fill:#fff; stroke:#1d1d1b; stroke-miterlimit:10; stroke-width:.5px;"/><path d="M279.6,304.21c0,2.26-2.53,4.18-4.04,4.18s-3.63-1.24-3.63-3.5,1.87-5.87,3.38-5.87,4.29,2.93,4.29,5.19Z" style="fill:#fff; stroke:#1d1d1b; stroke-miterlimit:10; stroke-width:.5px;"/><path d="M287.73,287.16c0,2.13-1.22,3.85-2.73,3.85s-2.24-.46-2.24-2.58-1.06-5.87.45-5.87,4.52,2.47,4.52,4.6Z" style="fill:#fff; stroke:#1d1d1b; stroke-miterlimit:10; stroke-width:.5px;"/><path d="M279.79,287.53c0,1.78-1.22,3.23-2.73,3.23s-1.6-1.49-1.6-3.27.02-3.9,1.53-3.9,2.81,2.16,2.81,3.94Z" style="fill:#fff; stroke:#1d1d1b; stroke-miterlimit:10; stroke-width:.5px;"/><path d="M277.47,270.64c0,2.06.29,4.24-1.36,4.24s-4.32-2.27-4.32-4.32,2.33-3.65,3.97-3.65,1.71,1.68,1.71,3.74Z" style="fill:#fff; stroke:#1d1d1b; stroke-miterlimit:10; stroke-width:.5px;"/><path d="M285.41,274.77c0,1.1-1.4,1.7-2.5,1.7s-1.86-1.45-1.86-2.54.67-2.06,1.76-2.06,2.6,1.81,2.6,2.91Z" style="fill:#fff; stroke:#1d1d1b; stroke-miterlimit:10; stroke-width:.5px;"/><path d="M280.88,257.22c0,1.44.05,3.05-1.19,3.05s-2.24-1.83-2.24-3.27.92-1.9,2.15-1.9,1.27.68,1.27,2.12Z" style="fill:#fff; stroke:#1d1d1b; stroke-miterlimit:10; stroke-width:.5px;"/><path d="M276.22,252.79c0,1.3-1.24,3.45-2.27,3.45s-2.48-1.1-2.48-2.41,1.83-3.78,2.86-3.78,1.89,1.43,1.89,2.74Z" style="fill:#fff; stroke:#1d1d1b; stroke-miterlimit:10; stroke-width:.5px;"/><path d="M289.58,249.59c0,1.23-1.06,2.24-2.36,2.24s-2.89-.94-2.89-2.18,1.58-1.78,2.88-1.78,2.37.49,2.37,1.72Z" style="fill:#fff; stroke:#1d1d1b; stroke-miterlimit:10; stroke-width:.5px;"/><path d="M285.79,243.86c0,.62-.97,2.29-2.2,2.29s-3.05-1.33-3.05-1.95,1.05-2.03,2.29-2.03,2.97,1.08,2.97,1.7Z" style="fill:#fff; stroke:#1d1d1b; stroke-miterlimit:10; stroke-width:.5px;"/><path d="M296.73,258.18c0,1.78-.61,3.75-2.33,3.75s-3.73-1.86-3.73-3.64.2-4.02,1.91-4.02,4.15,2.13,4.15,3.91Z" style="fill:#fff; stroke:#1d1d1b; stroke-miterlimit:10; stroke-width:.5px;"/><path d="M297.65,249.77c0,.77-.35,1.46-1.7,1.46s-2.43-.62-2.43-1.39.6-2.64,1.95-2.64,2.18,1.81,2.18,2.57Z" style="fill:#fff; stroke:#1d1d1b; stroke-miterlimit:10; stroke-width:.5px;"/><path d="M261.08,327.48c0,.75-.15,2.82-2.05,3.02s-3.41-.71-3.41-1.46,1.01-3.12,2.92-3.12,2.53.81,2.53,1.56Z" style="fill:#fff; stroke:#1d1d1b; stroke-miterlimit:10; stroke-width:.5px;"/><path d="M266.14,334.4c0,.89-1.22,4.78-4.05,4.78s-5.12-.72-5.12-1.61,1.07-4.05,3.9-4.05,5.26-.01,5.26.88Z" style="fill:#fff; stroke:#1d1d1b; stroke-miterlimit:10; stroke-width:.5px;"/><path d="M424.29,253.78c-1.23,2.5-2.55,3.94-5.2,5.05-3.47,1.44-5.39.12-4.74-4.23.41-2.76,1.87-5.92,4.74-5.86,3.99.07,6.53,2.34,5.2,5.05Z" style="fill:#fff; stroke:#1d1d1b; stroke-miterlimit:10; stroke-width:.5px;"/><path d="M426.93,266.72c-.47,1.57-1.51,3.14-2.52,3.47-1.32.43-4.3-.31-4.3-2.23s3.1-4.02,4.3-4.71c1.5-.86,3.26.99,2.52,3.47Z" style="fill:#fff; stroke:#1d1d1b; stroke-miterlimit:10; stroke-width:.5px;"/><path d="M438.81,254.65c-.2,1.82-1.91,2.53-3.94,3.31-2.56.98-4.57.13-3.94-3.31.33-1.8,2.47-3.87,4.07-4.04,3.06-.33,4.09,1.62,3.82,4.04Z" style="fill:#fff; stroke:#1d1d1b; stroke-miterlimit:10; stroke-width:.5px;"/><path d="M436.44,244.78c-.17,1.18-1.39,2.56-3.22,2.56s-3.73-.46-3.73-1.66.82-2.92,2.49-3.67c2.09-.94,4.82.31,4.46,2.76Z" style="fill:#fff; stroke:#1d1d1b; stroke-miterlimit:10; stroke-width:.5px;"/><path d="M453.97,246.2c0,1.13-1.55,2.86-3.03,2.86s-4.34-1.24-4.34-2.37,2.04-2.62,3.52-2.62,3.85.99,3.85,2.13Z" style="fill:#fff; stroke:#1d1d1b; stroke-miterlimit:10; stroke-width:.5px;"/><path d="M455.45,234.33c0,2.61-1.12,3.68-4.17,3.68s-6.71-.66-6.71-3.27,3.17-4.91,6.22-4.91,4.66,1.89,4.66,4.5Z" style="fill:#fff; stroke:#1d1d1b; stroke-miterlimit:10; stroke-width:.5px;"/><path d="M469.85,247.26c1.51,1.81,3.07,4.34,1.8,5.4s-4.22-.08-5.73-1.88-3.89-3.19-2.62-4.25,5.04-1.07,6.54.74Z" style="fill:#fff; stroke:#1d1d1b; stroke-miterlimit:10; stroke-width:.5px;"/><path d="M476.23,242.02c-.65,1.71-3.61.02-6.46-1.06s-5.81-1.56-5.15-3.27,4.6-3.87,7.44-2.78,4.82,5.41,4.17,7.12Z" style="fill:#fff; stroke:#1d1d1b; stroke-miterlimit:10; stroke-width:.5px;"/><path d="M480.18,262.33c0,2.18-2.01,4.81-3.79,4.81s-2.65-2.63-2.65-4.81-.14-4.44,1.64-4.44,4.81,2.26,4.81,4.44Z" style="fill:#fff; stroke:#1d1d1b; stroke-miterlimit:10; stroke-width:.5px;"/><path d="M484.99,252.27c.62,1.85.15,4.23-1.33,4.23s-2.77-.58-2.77-2.56-1.13-3.97.35-3.97,3.05.26,3.75,2.31Z" style="fill:#fff; stroke:#1d1d1b; stroke-miterlimit:10; stroke-width:.5px;"/><path d="M438.67,417.04c-1.33,1.15-3.76.62-5.58-1.49s-2.2-5.01-.87-6.15,4.15.3,5.96,2.4c1.81,2.11,1.81,4.09.48,5.24Z" style="fill:#fff; stroke:#1d1d1b; stroke-miterlimit:10; stroke-width:.5px;"/><path d="M433.59,426.67c-.73,1.49-3.44,1.72-5.41.76s-2.36-3.8-1.63-5.29,2.15-2.13,4.11-1.17,3.66,4.21,2.93,5.7Z" style="fill:#fff; stroke:#1d1d1b; stroke-miterlimit:10; stroke-width:.5px;"/><path d="M449.42,430.51c-.98,1.33-2.62,1.13-4.81-.48s-3.1-2.71-2.12-4.04,3.39-2.38,5.58-.77,2.33,3.96,1.35,5.29Z" style="fill:#fff; stroke:#1d1d1b; stroke-miterlimit:10; stroke-width:.5px;"/><path d="M447.97,438.97c-.1,1.92-2.4,2.02-3.68,1.25-2.1-1.27-4.63-2.45-3.82-4.04s3.39-1.97,5.58-.87,2.01,1.87,1.92,3.65Z" style="fill:#fff; stroke:#1d1d1b; stroke-miterlimit:10; stroke-width:.5px;"/><path d="M464.42,435.32c0,1.72-1.07,3.08-2.79,3.08s-4.42-.59-4.42-2.31,1.93-2.69,3.65-2.69,3.56.2,3.56,1.92Z" style="fill:#fff; stroke:#1d1d1b; stroke-miterlimit:10; stroke-width:.5px;"/><path d="M466.73,442.63c.47,1.59-1.34,3.89-4.13,4.71s-5.11.15-5.58-1.44.63-3.83,3.43-4.65c2.8-.82,5.82-.21,6.29,1.38Z" style="fill:#fff; stroke:#1d1d1b; stroke-miterlimit:10; stroke-width:.5px;"/><path d="M477.3,430.7c0,1.92-2.33,4.33-4.52,4.33s-2.02-2.12-2.02-4.04,1.37-4.13,3.56-4.13,2.98,1.93,2.98,3.85Z" style="fill:#fff; stroke:#1d1d1b; stroke-miterlimit:10; stroke-width:.5px;"/><path d="M481.34,436.38c.89,1.07,1.68,3.05.05,4.4s-4.09,1.94-4.95,1.65c-1.32-.44-1.24-3.84.38-5.19s3.63-1.93,4.52-.87Z" style="fill:#fff; stroke:#1d1d1b; stroke-miterlimit:10; stroke-width:.5px;"/><path d="M479.71,418.11c0,1.59-1.74,3.75-3.46,3.75s-2.02-2.07-2.02-3.65.78-3.75,2.5-3.75,2.98,2.07,2.98,3.65Z" style="fill:#fff; stroke:#1d1d1b; stroke-miterlimit:10; stroke-width:.5px;"/><path d="M487.68,423.11c0,1.46-1.77,3.08-3.36,3.08s-1.83-1.91-1.83-3.37.43-3.59,2.02-3.59,3.17,2.42,3.17,3.87Z" style="fill:#fff; stroke:#1d1d1b; stroke-miterlimit:10; stroke-width:.5px;"/><path d="M612.2,250.93c.58,1.61-1.43,4.78-2.65,4.78s-2.94-1.66-2.94-2.88,1.27-2.88,2.42-3.28,2.76.24,3.17,1.38Z" style="fill:#fff; stroke:#1d1d1b; stroke-miterlimit:10; stroke-width:.5px;"/><path d="M611.67,242.36c.47.8.5,3.2-1.15,4.16s-5.23.24-5.69-.56,0-2.82,1.64-3.78,4.73-.62,5.2.18Z" style="fill:#fff; stroke:#1d1d1b; stroke-miterlimit:10; stroke-width:.5px;"/><path d="M622.82,253.63c0,1.31-1.24,2.04-2.84,2.04s-2.99-2.84-2.99-4.16,1.58-1.05,3.18-1.05,2.65,1.85,2.65,3.17Z" style="fill:#fff; stroke:#1d1d1b; stroke-miterlimit:10; stroke-width:.5px;"/><path d="M623.23,245.77c-.25.84-1.44,1.23-2.65.87s-2.38-1.53-2.13-2.37.96-1.77,2.17-1.41,2.86,2.07,2.61,2.91Z" style="fill:#fff; stroke:#1d1d1b; stroke-miterlimit:10; stroke-width:.5px;"/><path d="M623.5,266.55c.17,2.89-1.76,4.72-3.14,4.94-.72.11-2.7-1.22-2.7-2.92s.71-5.57,2.36-5.57,3.38,1.84,3.48,3.54Z" style="fill:#fff; stroke:#1d1d1b; stroke-miterlimit:10; stroke-width:.5px;"/><path d="M629.63,263.1c-.72.98-2.27,1.14-3.1.54s-2.62-2.59-1.91-3.58,2.99-1.95,3.82-1.35,1.9,3.4,1.19,4.39Z" style="fill:#fff; stroke:#1d1d1b; stroke-miterlimit:10; stroke-width:.5px;"/><path d="M624.93,280.24c0,1.65-.34,4.98-2.09,4.98s-4.49-2.61-4.49-4.27,1.48-4.5,3.23-4.5,3.35,2.14,3.35,3.79Z" style="fill:#fff; stroke:#1d1d1b; stroke-miterlimit:10; stroke-width:.5px;"/><path d="M631.23,273.76c1.05,2.07.34,4.45-.54,4.49-.72.04-2.09.12-3.08-1.01s-1.62-2.89-.95-4.15c.41-.77,3.71-1.03,4.57.67Z" style="fill:#fff; stroke:#1d1d1b; stroke-miterlimit:10; stroke-width:.5px;"/><path d="M630.47,294.42c.55,1.36-.4,4.33-1.54,4.33s-2.73-1.73-3.03-2.88c-.36-1.38.05-4.44,1.19-4.44s2.93,1.88,3.38,2.99Z" style="fill:#fff; stroke:#1d1d1b; stroke-miterlimit:10; stroke-width:.5px;"/><path d="M637.33,291.08c.38,1.05-.93,2.88-1.76,3.18s-1.48-.47-1.85-1.52-1.83-3.01.28-3.85c1.77-.71,2.96,1.15,3.34,2.2Z" style="fill:#fff; stroke:#1d1d1b; stroke-miterlimit:10; stroke-width:.5px;"/><path d="M629.67,308.06c0,1.17-.82,3.26-1.91,3.26s-2.23-1.72-2.23-2.89,1.24-3.07,2.33-3.07,1.82,1.53,1.82,2.7Z" style="fill:#fff; stroke:#1d1d1b; stroke-miterlimit:10; stroke-width:.5px;"/><path d="M636.11,306.51c0,1.02-.44,2-1.46,2s-1.97-.46-1.97-1.49.22-2.84,1.24-2.84,2.19,1.31,2.19,2.33Z" style="fill:#fff; stroke:#1d1d1b; stroke-miterlimit:10; stroke-width:.5px;"/><path d="M628.67,320.25c.45,1.64,1.51,4.91-.58,4.91s-3.67-2.79-3.67-4.49-.29-3.92,1.8-3.92,2.1,2.22,2.45,3.51Z" style="fill:#fff; stroke:#1d1d1b; stroke-miterlimit:10; stroke-width:.5px;"/><path d="M638.11,317.21c0,1.62-1.24,3.7-2.82,3.7s-3.8-2.19-3.8-3.81.91-3.47,2.49-3.47,4.12,1.96,4.12,3.58Z" style="fill:#fff; stroke:#1d1d1b; stroke-miterlimit:10; stroke-width:.5px;"/><path d="M635.66,331.14c0,.92-1.31,1.53-2.09,1.53s-1.99-1.04-1.99-1.97.9-1.53,1.68-1.53,2.41,1.04,2.41,1.97Z" style="fill:#fff; stroke:#1d1d1b; stroke-miterlimit:10; stroke-width:.5px;"/><path d="M639.37,327.49c0,.83-.14,1.53-1.31,1.53s-2.48-1.51-2.48-2.33.95-1.82,2.11-1.82,1.68,1.8,1.68,2.62Z" style="fill:#fff; stroke:#1d1d1b; stroke-miterlimit:10; stroke-width:.5px;"/><path d="M800.33,335.79c0,1.49-1.23,3.64-3.42,3.64s-5.73-1.37-5.73-2.87,2.33-2.98,4.52-2.98,4.63.71,4.63,2.2Z" style="fill:#fff; stroke:#1d1d1b; stroke-miterlimit:10; stroke-width:.5px;"/><path d="M805.21,344.33c0,1.19-.15,3.09-2.53,3.09s-3.97-1.12-3.97-2.31,1.25-3.86,3.64-3.86,2.87,1.89,2.87,3.09Z" style="fill:#fff; stroke:#1d1d1b; stroke-miterlimit:10; stroke-width:.5px;"/><path d="M819.77,334.87c0,2.29-2.62.92-5,.92s-5.84.3-5.84-1.98,2.68-3.42,5.07-3.42,5.78,2.19,5.78,4.48Z" style="fill:#fff; stroke:#1d1d1b; stroke-miterlimit:10; stroke-width:.5px;"/><path d="M817.99,341.33c0,.99-1.21,1.8-2.7,1.8s-3.53-1.26-3.53-2.25,1.7-2.42,3.2-2.42,3.03,1.88,3.03,2.87Z" style="fill:#fff; stroke:#1d1d1b; stroke-miterlimit:10; stroke-width:.5px;"/><path d="M832.37,337.96c1.48,1.74,3.18,4.44,1.97,5.47s-3.4.61-4.88-1.13-3.82-3.65-2.61-4.68,4.04-1.4,5.52.35Z" style="fill:#fff; stroke:#1d1d1b; stroke-miterlimit:10; stroke-width:.5px;"/><path d="M834.16,350.52c0,1.94-2.21,1.86-4.71,1.86s-4.09-.76-4.09-2.7.1-3.97,2.6-3.97,6.2,2.87,6.2,4.81Z" style="fill:#fff; stroke:#1d1d1b; stroke-miterlimit:10; stroke-width:.5px;"/><path d="M844.04,356.89c.66,2.19-.09,4.91-1.43,5.31s-2.36-1.93-3.01-4.12-.06-3.25,1.27-3.65,2.51.27,3.17,2.46Z" style="fill:#fff; stroke:#1d1d1b; stroke-miterlimit:10; stroke-width:.5px;"/><path d="M837.61,363.4c0,1.49.03,3.41-2.06,3.41s-3.65-1.84-3.65-3.33.37-3.73,2.46-3.73,3.25,2.16,3.25,3.65Z" style="fill:#fff; stroke:#1d1d1b; stroke-miterlimit:10; stroke-width:.5px;"/><path d="M843.19,375.92c0,1.99-2.17,3.68-3.46,3.68s-1.36-2.44-1.36-4.43,1.63-3.14,2.93-3.14,1.89,1.9,1.89,3.89Z" style="fill:#fff; stroke:#1d1d1b; stroke-miterlimit:10; stroke-width:.5px;"/><path d="M835.04,377.32c0,1.49-.25,3.07-1.45,3.07s-3.29-.94-3.29-2.43,1.31-2.71,2.5-2.71,2.23.58,2.23,2.07Z" style="fill:#fff; stroke:#1d1d1b; stroke-miterlimit:10; stroke-width:.5px;"/><path d="M833.99,387.23c1.47,1.03,1.92,3.97.6,5.84s-4.27,2.59-5.74,1.57-.36-3.21.95-5.08,2.71-3.35,4.18-2.33Z" style="fill:#fff; stroke:#1d1d1b; stroke-miterlimit:10; stroke-width:.5px;"/><path d="M826,389.8c0,.81-.26,2.07-1.45,2.28-1.33.24-3.15.07-3.15-2.1,0-1.42,1.4-2.23,2.76-2.23s1.84,1.23,1.84,2.04Z" style="fill:#fff; stroke:#1d1d1b; stroke-miterlimit:10; stroke-width:.5px;"/><path d="M829.03,403.52c0,1.49-1.95,3.3-3.54,3.3s-1.7-2.35-1.7-3.84.5-3.29,2.1-3.29,3.14,2.34,3.14,3.83Z" style="fill:#fff; stroke:#1d1d1b; stroke-miterlimit:10; stroke-width:.5px;"/><path d="M820.7,407.17c0,1.59-.1,3.29-1.9,3.29s-3.54-2.35-3.54-3.94,1.05-3.49,2.84-3.49,2.59,2.55,2.59,4.14Z" style="fill:#fff; stroke:#1d1d1b; stroke-miterlimit:10; stroke-width:.5px;"/><path d="M835.29,419.89c-.96,1.14-3.03-.47-4.55-1.75-1.52-1.28-2.89-2.53-1.92-3.67s3.82-.97,5.34.31,2.1,3.97,1.14,5.11Z" style="fill:#fff; stroke:#1d1d1b; stroke-miterlimit:10; stroke-width:.5px;"/><path d="M831.56,422.99c0,1.65-2.26,2.42-4.26,2.42s-3.79-2.78-3.79-4.43,1.97-1.63,3.98-1.63,4.07,1.99,4.07,3.64Z" style="fill:#fff; stroke:#1d1d1b; stroke-miterlimit:10; stroke-width:.5px;"/><path d="M847.15,428.9c.12,1.29-.7,3.56-2.19,3.56s-2.62-2.14-2.52-3.43c.07-.91-.42-2.66,1.05-3.01s3.5,1.12,3.66,2.88Z" style="fill:#fff; stroke:#1d1d1b; stroke-miterlimit:10; stroke-width:.5px;"/><path d="M838.8,431.77c0,.99-.33,2.38-1.82,2.38s-2.66-1.67-2.66-2.66.82-2.45,2.31-2.45,2.17,1.74,2.17,2.73Z" style="fill:#fff; stroke:#1d1d1b; stroke-miterlimit:10; stroke-width:.5px;"/><path d="M848.39,442.01c0,1.99-1.95,4.51-3.64,4.51s-.34-2.28-.34-4.27-.05-3.58,1.63-3.74c1.49-.14,2.35,1.51,2.35,3.5Z" style="fill:#fff; stroke:#1d1d1b; stroke-miterlimit:10; stroke-width:.5px;"/><path d="M841.14,441.64c0,1.26-.71,3.15-2.58,3.15s-2.45-1.65-2.45-2.91.83-3.15,2.7-3.15,2.32,1.65,2.32,2.91Z" style="fill:#fff; stroke:#1d1d1b; stroke-miterlimit:10; stroke-width:.5px;"/><path d="M841.8,453.44c-.4,1.75-2.28,3.27-3.96,3.1-3.18-.33-3.89-1.68-2.17-3.1,1.38-1.14,1.54-2.51,3.06-3.24,2.32-1.12,3.76.21,3.06,3.24Z" style="fill:#fff; stroke:#1d1d1b; stroke-miterlimit:10; stroke-width:.5px;"/><path d="M837.12,448.32c0,1.87-1.8,2.7-3.34,2.7s-3.42-1.65-3.42-3.52,1.95-1.39,3.49-1.39,3.27.34,3.27,2.21Z" style="fill:#fff; stroke:#1d1d1b; stroke-miterlimit:10; stroke-width:.5px;"/><path d="M826.38,459.56c-2.35.67-4.07-.05-4.65-1.53s1.26-2.07,2.92-2.73,4.07-.57,4.65.91-1.2,2.86-2.92,3.36Z" style="fill:#fff; stroke:#1d1d1b; stroke-miterlimit:10; stroke-width:.5px;"/><path d="M825.35,452.01c0,.73-.09,1.99-2.14,1.99s-3.45-1.26-3.45-1.99,1.08-2.11,3.12-2.11,2.46,1.38,2.46,2.11Z" style="fill:#fff; stroke:#1d1d1b; stroke-miterlimit:10; stroke-width:.5px;"/><path d="M818.32,463.73c-.74,1.52-2.8,3.12-3.69,2.69s-.89-2.57-.16-4.09,1.9-3.1,2.8-2.67,1.79,2.55,1.05,4.08Z" style="fill:#fff; stroke:#1d1d1b; stroke-miterlimit:10; stroke-width:.5px;"/><path d="M812.34,459.28c-.93,1.17-2.32,1.21-3.18.53s-.49-1.85.44-3.02,1.74-1.25,2.6-.57,1.07,1.89.14,3.05Z" style="fill:#fff; stroke:#1d1d1b; stroke-miterlimit:10; stroke-width:.5px;"/><path d="M815.73,472.78c.24,1.27-.18,3.45-1.64,3.72s-1.86-1.36-2.1-2.63-.27-3.51,1.19-3.79,2.32,1.42,2.55,2.69Z" style="fill:#fff; stroke:#1d1d1b; stroke-miterlimit:10; stroke-width:.5px;"/><path d="M810.34,470.41c-.4,1.58-1.02,2.73-2.39,2.38s-2.85-1.54-2.45-3.13c.4-1.58,2.64-3.46,4-3.12s1.24,2.28.84,3.87Z" style="fill:#fff; stroke:#1d1d1b; stroke-miterlimit:10; stroke-width:.5px;"/><path d="M816.02,482.63c0,1.22-.47,2.78-1.53,2.78s-1.97-1.32-1.97-2.54.23-2.45,1.29-2.45,2.21.99,2.21,2.21Z" style="fill:#fff; stroke:#1d1d1b; stroke-miterlimit:10; stroke-width:.5px;"/><path d="M809.65,480.66c0,.9-.61,1.63-1.44,1.63s-1.53-.53-1.53-1.44.47-1.82,1.29-1.82,1.68.73,1.68,1.63Z" style="fill:#fff; stroke:#1d1d1b; stroke-miterlimit:10; stroke-width:.5px;"/><path d="M479.07,409.42c0,1.1-1.65,2.78-3.05,2.78s-2.09-1.25-2.09-2.35.48-3.1,1.87-3.1,3.26,1.57,3.26,2.67Z" style="fill:#fff; stroke:#1d1d1b; stroke-miterlimit:10; stroke-width:.5px;"/><path d="M487.14,411.56c0,1.54-.86,2.24-2.04,2.24s-2.88.1-2.88-1.44.54-4.28,1.71-4.28,3.21,1.93,3.21,3.48Z" style="fill:#fff; stroke:#1d1d1b; stroke-miterlimit:10; stroke-width:.5px;"/><path d="M431.42,406.49c0,1.45-1.39,2.33-2.95,2.33s-3.1-2.12-3.1-3.57.77-2.79,2.33-2.79,3.72,2.58,3.72,4.03Z" style="fill:#fff; stroke:#1d1d1b; stroke-miterlimit:10; stroke-width:.5px;"/><path d="M426.33,413.3c0,1.02-1.99,2.81-3.44,2.81s-1.86-3.01-1.86-4.03.87-1.55,2.33-1.55,2.98,1.76,2.98,2.78Z" style="fill:#fff; stroke:#1d1d1b; stroke-miterlimit:10; stroke-width:.5px;"/><path d="M789.02,343.48c0,1.5-1.6,2.86-3.19,2.86s-2.33-1.76-2.33-3.26,2.19-3.13,3.79-3.13,1.73,2.03,1.73,3.52Z" style="fill:#fff; stroke:#1d1d1b; stroke-miterlimit:10; stroke-width:.5px;"/><path d="M792.35,352.86c0,.9-.86,1.46-2.26,1.46s-2.26-.89-2.26-1.79.93-2.33,2.33-2.33,2.19,1.76,2.19,2.66Z" style="fill:#fff; stroke:#1d1d1b; stroke-miterlimit:10; stroke-width:.5px;"/><path d="M783.44,354.06c0,1.6-1.73,3.59-2.93,3.59s-2.19-1.13-2.19-2.73,1.06-3.42,2.26-3.42,2.86.96,2.86,2.56Z" style="fill:#fff; stroke:#1d1d1b; stroke-miterlimit:10; stroke-width:.5px;"/><path d="M788.49,363.5c0,1.2-1.02,2.7-1.92,2.7s-2.34-1.3-2.34-2.5,1.36-2.46,2.26-2.46,2,1.06,2,2.26Z" style="fill:#fff; stroke:#1d1d1b; stroke-miterlimit:10; stroke-width:.5px;"/><path d="M611.03,261.45c0,1.43-1.87,2.89-3.38,2.89s-1.79-1.15-1.79-2.58.82-3.5,2.32-3.5,2.85,1.76,2.85,3.19Z" style="fill:#fff; stroke:#1d1d1b; stroke-miterlimit:10; stroke-width:.5px;"/><path d="M603.39,254.55c0,1.03-.27,1.83-1.15,1.83s-2.12-.86-2.12-1.89,1.54-2.03,2.41-2.03.85,1.06.85,2.09Z" style="fill:#fff; stroke:#1d1d1b; stroke-miterlimit:10; stroke-width:.5px;"/><path d="M412.19,267.77c0,1.13-.46,2.75-1.88,2.75s-2.39-.76-2.39-1.88.89-2.24,2.32-2.24,1.95.25,1.95,1.38Z" style="fill:#fff; stroke:#1d1d1b; stroke-miterlimit:10; stroke-width:.5px;"/><path d="M417.24,275.88c-.13,1.17-2.11,2.15-3.17,2.03s-1.44-1.36-1.3-2.53,1.7-2.8,2.75-2.68,1.85,2.01,1.72,3.18Z" style="fill:#fff; stroke:#1d1d1b; stroke-miterlimit:10; stroke-width:.5px;"/></svg>